<svg width="1559" height="1417" viewBox="0 0 1559 1417" fill="none" xmlns="http://www.w3.org/2000/svg">
<g clip-path="url(#clip0_117_9)">
<path d="M779.5 1417C1210.01 1417 1559 1099.79 1559 708.5C1559 317.206 1210.01 0 779.5 0C348.994 0 0 317.206 0 708.5C0 1099.79 348.994 1417 779.5 1417Z" fill="#25312A"/>
<path d="M779.5 1301.7C1148.48 1301.7 1447.59 1029.74 1447.59 694.266C1447.59 358.787 1148.48 86.8276 779.5 86.8276C410.523 86.8276 111.409 358.787 111.409 694.266C111.409 1029.74 410.523 1301.7 779.5 1301.7Z" fill="#F8E7E7"/>
<path d="M832.329 629.145C832.329 769.863 710.531 883.935 560.281 883.935C410.027 883.935 288.225 769.863 288.225 629.145C288.225 488.427 410.027 374.355 560.281 374.355C710.531 374.355 832.329 488.427 832.329 629.145Z" fill="url(#paint0_linear_117_9)"/>
<path d="M1236.27 629.145C1236.27 769.863 1115.62 883.935 966.752 883.935C817.884 883.935 697.202 769.863 697.202 629.145C697.202 488.427 817.884 374.355 966.752 374.355C1115.62 374.355 1236.27 488.427 1236.27 629.145Z" fill="url(#paint1_linear_117_9)"/>
<path d="M375.572 816.846C340.718 784.096 367.299 753.995 406.545 725.969L712.612 507.369C741.701 486.592 781.97 486.592 811.059 507.369L1117.13 725.969C1156.38 753.995 1177.19 791.651 1142.37 824.404L819.352 1128.47C787.589 1158.32 720.389 1142.39 688.623 1112.54L375.572 816.846Z" fill="url(#paint2_linear_117_9)"/>
<path d="M340.694 457.614C486.77 486.076 549.016 474.158 615.981 349.446" stroke="#F8E7E7" stroke-opacity="0.66" stroke-width="5"/>
<path d="M1091.8 914.538C1160.65 697.906 1172.16 585.99 1101.73 374.355" stroke="#F8E7E7" stroke-opacity="0.66" stroke-width="5" stroke-linejoin="round"/>
<path d="M587.23 1091.75C947.863 892.451 1042.89 759.164 872.451 390.725" stroke="#F8E7E7" stroke-opacity="0.66" stroke-width="5"/>
<path d="M425.508 882.511C670.36 752.209 757.927 661.468 774.109 399.977" stroke="#F8E7E7" stroke-opacity="0.66" stroke-width="5"/>
<path d="M240.067 634.894C509.295 653.698 616.12 617.094 694.326 370.085" stroke="#F8E7E7" stroke-opacity="0.66" stroke-width="5"/>
</g>
<defs>
<linearGradient id="paint0_linear_117_9" x1="547.211" y1="576.137" x2="949.898" y2="1006.13" gradientUnits="userSpaceOnUse">
<stop stop-color="#F07156"/>
<stop offset="1" stop-color="#DE4A46"/>
</linearGradient>
<linearGradient id="paint1_linear_117_9" x1="549.482" y1="576.137" x2="952.397" y2="1002.4" gradientUnits="userSpaceOnUse">
<stop stop-color="#F07156"/>
<stop offset="1" stop-color="#DE4A46"/>
</linearGradient>
<linearGradient id="paint2_linear_117_9" x1="547.097" y1="577.172" x2="949.866" y2="1005.82" gradientUnits="userSpaceOnUse">
<stop stop-color="#F07156"/>
<stop offset="1" stop-color="#DE4A46"/>
</linearGradient>
<clipPath id="clip0_117_9">
<rect width="1559" height="1417" fill="white"/>
</clipPath>
</defs>
</svg>
